# xmcd
#
# Track frame offsets:
#	150
#	15568
#	33295
#	50330
#	69804
#	85989
#	101530
#	119756
#	135973
#	152639
#	168717
#	193275
#
# Disc length: 2813 seconds
#
# Revision: 1
# Processed by: cddbd v1.5.2PL0 Copyright (c) Steve Scherf et al.
# Submitted via: audiograbber 1.83.01
#
DISCID=990afb0c
DTITLE=SheDaisy - Sweet Right Here
DYEAR=2004
DGENRE=Country
TTITLE0=Passenger Seat
TTITLE1=5 4 3 2 Run
TTITLE2=360 Degrees of You
TTITLE3=Love Goes On
TTITLE4=I Dare You
TTITLE5=Good Together (Bucket and Chicken)
TTITLE6=Come Home Soon
TTITLE7=Don't Worry 'bout a Thing
TTITLE8=Without a Sound
TTITLE9=Borrowed Home
TTITLE10=A Woman's Work
TTITLE11=He's a Hero
EXTD=
EXTT0=
EXTT1=
EXTT2=
EXTT3=
EXTT4=
EXTT5=
EXTT6=
EXTT7=
EXTT8=
EXTT9=
EXTT10=
EXTT11=
PLAYORDER=
